<svg xmlns="http://www.w3.org/2000/svg" viewBox="0 0 1440 450"><path fill="#2e2e2e" fill-opacity="1" d="M0,128L24,149.3C48,171,96,213,144,213.3C192,213,240,171,288,149.3C336,128,384,128,432,144C480,160,528,192,576,176C624,160,672,96,720,101.3C768,107,816,181,864,197.3C912,213,960,171,1008,144C1056,117,1104,107,1152,117.3C1200,128,1248,160,1296,165.3C1344,171,1392,149,1416,138.7L1440,128L1440,500L1416,500C1392,500,1344,500,1296,500C1248,500,1200,500,1152,500C1104,500,1056,500,1008,500C960,500,912,500,864,500C816,500,768,500,720,500C672,500,624,500,576,500C528,500,480,500,432,500C384,500,336,500,288,500C240,500,192,500,144,500C96,500,48,500,24,500L0,500Z"></path></svg>